<svg xmlns="http://www.w3.org/2000/svg" width="116" height="44" viewBox="0 0 116 44">
    <path fill="#FFF" fill-rule="evenodd" d="M0 43.274V0h19.42c10.29 0 14.673 4.6 14.673 11.318v.242c0 4.842-2.496 8.05-7.367 9.32 5.358.908 8.706 4.116 8.706 10.108v.242c0 7.747-5.053 12.044-15.829 12.044H0zm12.176-8.292h5.175c3.957 0 5.783-1.816 5.783-5.023v-.242c0-3.269-1.765-4.963-6.148-4.963h-4.81v10.228zm0-17.794h4.749c3.896 0 5.357-1.331 5.357-4.418v-.242c0-2.965-1.583-4.297-5.357-4.297h-4.749v8.957zM55.949 44c-9.985 0-17.29-5.81-17.29-16.16v-.484c0-10.168 7.61-16.583 17.229-16.583 8.706 0 16.194 4.963 16.194 16.341v2.845H49.678c.304 4.176 2.74 6.597 6.636 6.597 3.592 0 5.114-1.634 5.54-3.753h10.228C71.108 39.945 65.568 44 55.949 44zm-6.15-20.154h11.69c-.183-3.813-2.07-5.931-5.601-5.931-3.288 0-5.54 2.118-6.088 5.93zm30.353 6.64l-.584.584a2.717 2.717 0 0 1-3.827.011 2.679 2.679 0 0 1-.01-3.804l16.143-16.138a5.094 5.094 0 0 1 7.197 0l16.142 16.138a2.679 2.679 0 0 1-.01 3.804 2.717 2.717 0 0 1-3.827-.01l-.798-.798v13h-10.22V33.256c0-3.571-1.827-7.088-4.993-7.088-3.226 0-4.992 2.62-4.992 7.088v10.019H80.152V30.486zm-.332-19.054h7.376v2.358l-6.463 6.477h-.913v-8.835z"/>
</svg>
